<svg width="45" height="35" viewBox="0 0 45 35" fill="none" xmlns="http://www.w3.org/2000/svg">
<path fill-rule="evenodd" clip-rule="evenodd" d="M3.25641 0H41.5029C43.295 0 44.7593 1.46429 44.7593 3.25641C44.7593 5.04853 43.295 6.51283 41.5029 6.51283H3.25641C1.46429 6.51283 0 5.04853 0 3.25641C0 1.46429 1.46429 0 3.25641 0ZM3.25641 28.4372H41.5029C43.295 28.4372 44.7593 29.9015 44.7593 31.6936C44.7593 33.4857 43.295 34.95 41.5029 34.95H3.25641C1.46429 34.95 0 33.4857 0 31.6936C0 29.9015 1.46429 28.4372 3.25641 28.4372ZM3.25641 14.2168H41.5029C43.295 14.2168 44.7593 15.6811 44.7593 17.4732C44.7593 19.2653 43.295 20.7296 41.5029 20.7296H3.25641C1.46429 20.7296 0 19.2653 0 17.4732C0 15.6847 1.46429 14.2168 3.25641 14.2168Z" fill="#0066FF"/>
</svg>
