<svg width="53" height="46" viewBox="0 0 53 46" fill="none" xmlns="http://www.w3.org/2000/svg">
<path d="M50.2911 15.4H42.8691L41.2874 6.70134C40.6381 4.02006 38.4415 1.88348 35.5688 1.13868C34.1522 0.719048 32.6767 0.492808 31.1887 0.466675H22.1039C20.6158 0.492808 19.1404 0.719048 17.7237 1.13868C14.8511 1.88348 12.6545 4.02006 12.0052 6.70134L10.4234 15.4H3.00148C1.8817 15.3937 0.968355 16.2243 0.96146 17.2555C0.960243 17.4492 0.991472 17.6419 1.05474 17.8267L8.67948 41.3467C9.47602 43.6785 11.8239 45.2652 14.4791 45.2667H38.8134C41.4537 45.2491 43.7804 43.6654 44.5725 41.3467L52.1973 17.8267C52.5335 16.8433 51.9397 15.7954 50.8714 15.4859C50.6837 15.4314 50.4882 15.4026 50.2911 15.4ZM14.5603 15.4L16.0203 7.29867C16.3476 5.94534 17.5355 4.91121 19.0215 4.68534C20.0205 4.39564 21.0571 4.23249 22.1039 4.20001H31.1887C32.2488 4.22913 33.2997 4.39228 34.3116 4.68534C35.7976 4.91121 36.9855 5.94534 37.3128 7.29867L38.7323 15.4H14.398H14.5603Z" fill="white" fill-opacity="0.8"/>
</svg>
